<svg width="30" height="25" viewBox="0 0 30 25" fill="none" xmlns="http://www.w3.org/2000/svg">
<path d="M28.0736 0.0978654C29.1183 -0.305345 30.1983 0.598891 29.9689 1.68458L25.2837 23.838C25.0648 24.8766 23.8313 25.3444 22.9667 24.716L15.8939 19.5805L12.2888 23.2218C11.6552 23.8607 10.5629 23.6006 10.2911 22.7487L7.69004 14.581L0.717816 12.5439C-0.198036 12.2768 -0.250958 11.0165 0.636641 10.6727L28.0736 0.0978654ZM24.6343 5.01345C24.9395 4.74633 24.5848 4.27507 24.239 4.48802L9.18988 13.7204C8.92517 13.8828 8.80346 14.2022 8.89692 14.4972L10.9492 23.412C10.9899 23.5482 11.1874 23.5289 11.2051 23.3876L11.6639 16.5937C11.6815 16.4262 11.7627 16.2725 11.8898 16.1609L24.6343 5.01345Z" fill="#F6F6F6"/>
</svg>
