<svg width="29" height="20" viewBox="0 0 29 20" fill="none" xmlns="http://www.w3.org/2000/svg">
<path d="M14.2822 3.66091e-10C14.2822 3.66091e-10 23.2229 -0.000324953 25.459 0.611328C26.6824 0.94072 27.648 1.90549 27.9775 3.12891C28.5871 5.35619 28.5656 9.99007 28.5654 10.0234C28.5654 10.0234 28.5658 14.6592 27.9775 16.8945C27.6481 18.1181 26.6825 19.0827 25.459 19.4121C23.223 20.0003 14.2822 20 14.2822 20C14.2098 20 5.35686 19.9978 3.10645 19.3887C1.88294 19.0593 0.91735 18.0946 0.587891 16.8711C-0.000357523 14.6593 5.26984e-10 10 5.26984e-10 10C3.74964e-06 9.97667 0.00112942 5.3586 0.587891 3.12891C0.917396 1.9055 1.90652 0.917281 3.10645 0.587891C5.3335 0.00218151 14.2097 9.79162e-06 14.2822 3.66091e-10ZM11.4268 14.2832L18.5674 10.001L11.4268 5.71875V14.2832Z" fill="#F6F6F6"/>
</svg>
