<svg width="22" height="18" viewBox="0 0 22 18" fill="none" xmlns="http://www.w3.org/2000/svg">
<path d="M13.3081 0.5C13.6456 0.5 13.9699 0.634421 14.2085 0.873047L21.1304 7.79492L21.2144 7.8877C21.2941 7.9842 21.3594 8.092 21.4077 8.20801L21.4507 8.32617C21.4871 8.44582 21.5054 8.57076 21.5054 8.69629C21.5053 8.82192 21.4872 8.94668 21.4507 9.06641L21.4077 9.18457C21.3435 9.33848 21.2486 9.47713 21.1304 9.59473L21.1313 9.5957L14.2085 16.5195L14.2065 16.5205C14.1176 16.6087 14.0161 16.6829 13.9058 16.7412L13.7925 16.7949C13.6393 16.8574 13.4754 16.8881 13.3101 16.8877L13.311 16.8887L13.3081 16.8877L13.3052 16.8887V16.8877C13.1819 16.8878 13.0596 16.871 12.9419 16.8359L12.8237 16.7949C12.7079 16.7476 12.6001 16.6831 12.5034 16.6045L12.4097 16.5205C12.2909 16.4026 12.1967 16.262 12.1323 16.1074C12.0679 15.9528 12.0347 15.7866 12.0347 15.6191C12.0347 15.4518 12.068 15.2863 12.1323 15.1318C12.1967 14.9773 12.2909 14.8366 12.4097 14.7188L18.439 8.69531L12.4087 2.67285V2.67188C12.1702 2.43327 12.0357 2.10985 12.0356 1.77246C12.0356 1.43507 12.1702 1.11166 12.4087 0.873047L12.5024 0.788086C12.7287 0.602785 13.0131 0.500071 13.3081 0.5Z" fill="#FFD651" stroke="#FFD651"/>
<path d="M20.2324 7.42578C20.5689 7.42588 20.8919 7.5599 21.1299 7.79785L21.2139 7.89062C21.3989 8.11649 21.501 8.40075 21.501 8.69531C21.5009 8.98966 21.3987 9.27327 21.2139 9.49902L21.1299 9.59277C20.8919 9.83072 20.5689 9.96377 20.2324 9.96387H1.76953C1.47494 9.96387 1.19072 9.86186 0.964844 9.67676L0.87207 9.59277C0.634092 9.3548 0.500066 9.03186 0.5 8.69531L0.505859 8.56934C0.534756 8.27886 0.663845 8.00608 0.87207 7.79785L0.964844 7.71289C1.19068 7.52791 1.47504 7.42578 1.76953 7.42578H20.2324Z" fill="#FFD651" stroke="#FFD651"/>
</svg>
