<svg width="166" height="165" viewBox="0 0 166 165" fill="none" xmlns="http://www.w3.org/2000/svg">
<path d="M10.2316 123.558C10.2099 123.582 10.1971 123.613 10.1955 123.646L10.1694 123.682C7.27513 129.123 5.0156 134.879 3.43532 140.836L3.42522 140.873C3.36041 141.085 3.311 141.285 3.2616 141.498L3.24885 141.56C1.56358 148.123 0.710423 154.872 0.709473 161.648C0.709473 162.31 0.972536 162.945 1.44079 163.413C1.90905 163.882 2.54414 164.145 3.20635 164.145H160.069C160.731 164.143 161.365 163.88 161.834 163.412C162.302 162.944 162.567 162.31 162.569 161.648C162.566 154.876 161.714 148.132 160.031 141.573V141.56C159.969 141.311 159.907 141.073 159.844 140.836L159.829 140.811C158.233 134.757 155.933 128.912 152.976 123.394C152.923 123.322 152.888 123.246 152.838 123.171C150.678 119.145 148.169 115.316 145.341 111.727V111.717L145.207 111.548C145.212 111.495 145.22 111.442 145.22 111.389V111.366C145.219 111.235 145.207 111.105 145.183 110.977L145.17 110.865C145.17 110.84 145.157 110.829 145.144 110.803L138.574 73.7504L154.664 89.8409C155.139 90.3038 155.775 90.5635 156.439 90.565C157.098 90.5658 157.732 90.3055 158.2 89.8409L164.558 83.4808C165.026 83.0116 165.289 82.3757 165.289 81.7128C165.289 81.0498 165.026 80.4139 164.558 79.9448L134.3 49.6757L132.012 36.8104L145.392 23.4304L158.197 10.6273C158.431 10.3958 158.616 10.1204 158.742 9.81702C158.869 9.51362 158.934 9.1882 158.934 8.85953C158.934 8.53086 158.869 8.20544 158.742 7.90204C158.616 7.59864 158.431 7.32327 158.197 7.0918L151.841 0.729546C151.371 0.262296 150.735 0 150.073 0C149.41 0 148.775 0.262296 148.305 0.729546L124.905 24.13C122.502 22.5581 119.692 21.7239 116.822 21.7304C116.738 21.7283 116.655 21.7327 116.572 21.7437C113.639 21.7907 110.784 22.7023 108.366 24.3644C105.948 26.0265 104.075 28.3651 102.98 31.0873L91.7997 19.9071L78.9828 7.0902C78.5054 6.63787 77.8727 6.38575 77.215 6.38575C76.5574 6.38575 75.9247 6.63787 75.4473 7.0902L69.0867 13.4477C68.6194 13.9174 68.3571 14.5531 68.3571 15.2157C68.3571 15.8783 68.6194 16.5139 69.0867 16.9837L99.7063 47.6161L96.5964 65.167L93.462 68.3013L84.6321 77.1201V76.3572C84.6321 76.3105 84.5933 76.2664 84.5907 76.2196C84.5786 75.8021 84.4589 75.3948 84.2432 75.0371L84.2299 74.9956L84.2066 74.959L84.1991 74.9542L70.01 53.2866C69.9707 53.2266 69.9037 53.2006 69.8591 53.1437C69.6739 52.8873 69.4364 52.6731 69.1624 52.5152C68.8883 52.3573 68.5838 52.2594 68.2691 52.2279C68.1862 52.2151 68.1187 52.163 68.0332 52.1577L67.9801 52.1684L67.9206 52.1556H36.2288C35.8362 52.1554 35.4491 52.2478 35.0989 52.4253C34.7487 52.6028 34.4453 52.8604 34.2133 53.1772L18.2811 74.8841C18.2368 74.9661 18.1977 75.051 18.1642 75.138C18.077 75.2821 18.0057 75.4353 17.9517 75.5949C17.9016 75.7561 17.8678 75.922 17.8508 76.09C17.8277 76.1797 17.81 76.2707 17.7977 76.3625V111.381C17.8129 111.526 17.8417 111.668 17.8837 111.806C15.0836 115.374 12.5952 119.176 10.4462 123.17C10.3574 123.289 10.2852 123.419 10.2316 123.558ZM9.06975 139.311C10.0788 135.976 11.3315 132.719 12.8177 129.568H37.6659C46.7388 129.56 55.4481 133.133 61.9015 139.511C58.8115 143.385 56.4763 147.805 55.017 152.541C53.0263 149.265 50.2254 146.556 46.8843 144.677C43.5432 142.797 39.7744 141.81 35.9409 141.809H8.34566C8.57197 140.971 8.80732 140.139 9.06975 139.311ZM5.74679 159.15C5.88497 155.003 6.36472 150.875 7.18116 146.808H35.9409C39.665 146.811 43.2893 148.013 46.2773 150.235C49.2653 152.458 51.4583 155.584 52.5318 159.15H5.74679ZM58.6407 159.15C59.4779 153.404 61.7562 147.963 65.2633 143.335C68.7841 147.956 71.067 153.4 71.8959 159.15H58.6407ZM78.0048 159.15C79.0767 155.583 81.2694 152.456 84.2579 150.233C87.2464 148.01 90.8716 146.809 94.5962 146.808H156.108C156.914 150.877 157.39 155.004 157.532 159.15H78.0048ZM154.935 141.809H94.5962C90.7613 141.811 86.9912 142.799 83.6483 144.678C80.3053 146.558 77.5017 149.265 75.5068 152.54C74.0552 147.805 71.7192 143.389 68.6223 139.524C75.0735 133.142 83.7832 129.564 92.858 129.568H150.46C151.944 132.721 153.197 135.977 154.209 139.311C154.471 140.139 154.709 140.971 154.935 141.809ZM139.747 108.892H125.553V93.226C125.551 91.1962 124.744 89.2502 123.309 87.8148C121.873 86.3793 119.928 85.5715 117.898 85.5686H115.747C113.719 85.5735 111.776 86.3823 110.343 87.8176C108.91 89.253 108.105 91.1979 108.103 93.226V108.892H93.9114L98.4951 83.0446L117.021 64.5316C117.486 64.0576 117.746 63.4208 117.748 62.7572C117.748 62.4303 117.685 62.1063 117.56 61.804C117.435 61.5017 117.252 61.227 117.021 60.9956L112.424 56.3966L116.822 51.9999L122.993 58.1582L132.414 67.5794V67.5921L139.747 108.892ZM120.557 108.892H113.099V93.226C113.099 92.5224 113.378 91.8474 113.874 91.3487C114.37 90.85 115.044 90.5682 115.747 90.565H117.898C118.603 90.5678 119.278 90.8491 119.776 91.3476C120.274 91.8461 120.555 92.5213 120.557 93.226V108.892ZM69.0325 108.892H63.7848V88.8395H69.0325V108.892ZM71.5293 83.8436H61.2868C60.6252 83.8454 59.9912 84.1091 59.5233 84.5769C59.0554 85.0448 58.7918 85.6788 58.79 86.3405V108.89H53.1858V78.8605H79.6314V108.892H74.0283V86.3415C74.0285 86.0135 73.964 85.6886 73.8385 85.3855C73.713 85.0823 73.529 84.8069 73.297 84.5749C73.065 84.3429 72.7896 84.1589 72.4865 84.0335C72.1834 83.908 71.8574 83.8435 71.5293 83.8436ZM77.5086 73.8619H55.8628L67.7251 58.9205L77.5086 73.8619ZM48.1836 108.886H22.7898V78.8631H48.1836V108.886ZM84.6273 96.6866C84.8926 96.5697 85.1337 96.4043 85.3381 96.1989L92.3214 89.2156L88.8242 108.892H84.6273V96.6866ZM135.822 58.2719L159.257 81.709L156.434 84.5443L140.196 68.3029L130.889 58.996L128.29 56.3966L130.103 54.5861L131.112 53.5767L135.822 58.2719ZM129.039 48.5782L124.754 52.8611L120.357 48.4639L127.703 41.1178L129.039 48.5782ZM150.066 6.02504L152.901 8.86245L141.859 19.9071L130.676 31.0873H130.663L126.642 35.1104V35.1232L124.756 36.9964L121.934 34.1739L125.032 31.074L128.606 27.5019L150.066 6.02504ZM107.078 34.7109C107.533 32.4608 108.751 30.4368 110.527 28.9818C112.302 27.5268 114.526 26.7301 116.822 26.7268C118.359 26.7241 119.876 27.0883 121.244 27.7893L116.635 32.3989C116.4 32.63 116.215 32.9052 116.088 33.2087C115.961 33.5121 115.896 33.8378 115.896 34.1667C115.896 34.4956 115.961 34.8212 116.088 35.1247C116.215 35.4281 116.4 35.7034 116.635 35.9344L121.232 40.5313L116.822 44.9407L110.663 38.7702L107.003 35.1104L107.078 34.7109ZM74.3838 15.222L77.2217 12.3868L88.2643 23.4293L101.631 36.7966V36.8104L105.354 40.5329L102.531 43.3549L100.783 41.6066L74.3838 15.222ZM104.665 48.2902L108.888 44.0673L113.297 48.4639L107.126 54.6355L102.766 58.996L104.665 48.2902ZM95.0722 73.7504L96.9815 71.8379L101.244 67.5789L108.888 59.9289L111.726 62.754L100.019 74.458L99.4433 75.0365L84.6289 89.851V84.1937L95.0722 73.7504ZM37.4922 57.1573H62.7446L49.4782 73.8673H25.2277L37.4922 57.1573ZM16.8265 122.072C18.5635 119.218 20.4917 116.484 22.598 113.891H140.681C142.787 116.485 144.715 119.218 146.453 122.072C146.964 122.897 147.451 123.732 147.913 124.569H92.858C82.5456 124.564 72.6411 128.596 65.2633 135.801C57.8876 128.591 47.9801 124.559 37.6659 124.569H15.3677C15.8294 123.723 16.3266 122.897 16.8265 122.072Z" fill="#FFD651"/>
</svg>
