<svg width="170" height="178" viewBox="0 0 170 178" fill="none" xmlns="http://www.w3.org/2000/svg">
<path d="M160.548 28.77C161.231 28.77 161.885 29.0538 162.368 29.559C162.85 30.0643 163.121 30.7495 163.121 31.464C163.121 32.1784 162.85 32.8637 162.368 33.3689C161.885 33.8741 161.231 34.1579 160.548 34.1579H150.257C149.119 34.1621 148.029 34.6379 147.225 35.4812C146.421 36.3245 145.968 37.4669 145.966 38.6584V67.4205C145.968 68.6121 146.421 69.7544 147.225 70.5978C148.029 71.4411 149.119 71.9168 150.257 71.921H160.548C161.208 71.9585 161.828 72.259 162.282 72.7609C162.736 73.2627 162.989 73.9277 162.989 74.619C162.989 75.3102 162.736 75.9752 162.282 76.4771C161.828 76.9789 161.208 77.2795 160.548 77.3169H150.257C147.752 77.3127 145.351 76.2684 143.581 74.4132C141.81 72.5579 140.815 70.0432 140.813 67.4205V38.6584C140.815 36.0365 141.81 33.5226 143.581 31.6686C145.352 29.8146 147.753 28.7721 150.257 28.77H160.548ZM47.2201 28.77H36.921C36.2386 28.77 35.5842 29.0538 35.1017 29.559C34.6192 30.0643 34.3481 30.7495 34.3481 31.464C34.3481 32.1784 34.6192 32.8637 35.1017 33.3689C35.5842 33.8741 36.2386 34.1579 36.921 34.1579H47.2201C48.3582 34.1621 49.4483 34.6379 50.2523 35.4812C51.0564 36.3245 51.5088 37.4669 51.5108 38.6584V67.4205C51.5088 68.6121 51.0564 69.7544 50.2523 70.5978C49.4483 71.4411 48.3582 71.9168 47.2201 71.921H36.921C36.2618 71.9585 35.6413 72.259 35.1873 72.7609C34.7333 73.2627 34.4802 73.9277 34.4802 74.619C34.4802 75.3102 34.7333 75.9752 35.1873 76.4771C35.6413 76.9789 36.2618 77.2795 36.921 77.3169H47.2201C49.7249 77.3127 52.1259 76.2684 53.8963 74.4132C55.6667 72.5579 56.6621 70.0432 56.6641 67.4205V38.6584C56.6621 36.0365 55.6665 33.5226 53.8958 31.6686C52.1252 29.8146 49.7242 28.7721 47.2201 28.77ZM170 17.0829V117.766C169.929 120.371 169.317 122.928 168.206 125.26C167.096 127.592 165.513 129.643 163.568 131.269C161.623 132.895 159.363 134.058 156.945 134.676C154.527 135.294 152.01 135.353 149.568 134.849V175.306C149.566 176.021 149.293 176.706 148.81 177.211C148.326 177.716 147.671 178 146.988 178H106.124C105.442 178 104.787 177.716 104.305 177.211C103.822 176.706 103.551 176.021 103.551 175.306V163.112C95.1289 159.554 85.7529 147.36 76.3089 144.523C71.0689 144.104 65.7986 144.548 60.69 145.839C60.1726 145.951 59.6347 145.893 59.1498 145.674C58.6649 145.454 58.2566 145.083 57.9809 144.611C56.7127 141.54 56.2881 138.159 56.755 134.849H16.3076C11.9831 134.843 7.83753 133.041 4.78035 129.838C1.72316 126.636 0.00400371 122.294 0 117.766L0 17.0829C0.00400371 12.5549 1.72316 8.21344 4.78035 5.0109C7.83753 1.80837 11.9831 0.0062928 16.3076 0L153.685 0C158.01 0.00628848 162.156 1.80811 165.215 5.01042C168.273 8.21273 169.994 12.5542 170 17.0829ZM27.477 5.39586H16.3076C13.3492 5.40006 10.5133 6.63297 8.4221 8.82404C6.33093 11.0151 5.15535 13.9853 5.15335 17.0829V117.766C5.15535 120.864 6.33093 123.834 8.4221 126.025C10.5133 128.216 13.3492 129.449 16.3076 129.453H27.477V5.39586ZM144.377 163.619H108.667V172.604H144.377V163.619ZM144.377 106.348C144.289 104.764 143.628 103.274 142.529 102.181C141.43 101.087 139.975 100.473 138.459 100.461C136.636 100.231 135.069 102.212 133.298 101.325C132.932 101.149 132.61 100.887 132.358 100.558C132.106 100.229 131.93 99.8435 131.846 99.4312C131.559 98.0473 130.83 96.8073 129.778 95.9168C128.727 95.0262 127.416 94.5385 126.064 94.5345C123.627 94.1542 122.28 96.9115 120.01 96.9115C119.648 96.8766 119.296 96.7628 118.978 96.5772C118.66 96.3916 118.383 96.1384 118.164 95.834C117.597 95.0893 116.877 94.4881 116.057 94.0748C115.238 93.6616 114.34 93.447 113.43 93.447C112.521 93.447 111.623 93.6616 110.804 94.0748C109.984 94.4881 109.264 95.0893 108.697 95.834C108.368 96.2773 107.916 96.6026 107.402 96.7651C106.889 96.9275 106.34 96.9189 105.832 96.7406C105.323 96.5622 104.88 96.2229 104.564 95.7695C104.248 95.3161 104.074 94.7711 104.066 94.2097V63.3083C103.998 58.1263 93.9938 58.2214 93.9257 63.3083V125.777C93.9234 126.192 93.83 126.601 93.6526 126.973C93.4752 127.344 93.2186 127.668 92.9027 127.919C92.5867 128.171 92.2198 128.342 91.8304 128.421C91.4409 128.501 91.0393 128.485 90.6566 128.376C83.233 125.531 58.0717 125.206 61.9461 140.126C67.1581 138.881 72.5429 138.639 77.8375 139.413C87.7507 141.996 97.7018 155.26 106.049 158.247H144.332L144.377 106.348ZM109.234 63.2845V71.921C112.609 72.1429 116.605 71.9606 116.802 67.4205V38.6584C116.8 37.4655 116.346 36.322 115.541 35.4784C114.735 34.6349 113.643 34.16 112.503 34.1579H85.0341C83.8947 34.16 82.8026 34.6349 81.9969 35.4784C81.1913 36.322 80.7378 37.4655 80.7358 38.6584V67.4205C80.9099 72.2855 85.3973 72.0637 88.8329 71.921V63.2845C89.023 60.6303 90.2043 58.1615 92.1207 56.413C94.0371 54.6644 96.5344 53.7769 99.0714 53.9428C101.598 53.7901 104.08 54.6845 105.982 56.4325C107.883 58.1805 109.052 60.6418 109.234 63.2845ZM164.847 17.0829C164.845 13.984 163.668 11.0125 161.575 8.82124C159.482 6.62995 156.645 5.39796 153.685 5.39586H32.6076V129.453H58.7679C63.2023 121.641 80.7963 119.945 88.8026 122.322V77.3169H85.0189C83.7771 77.3179 82.5472 77.0627 81.3996 76.5658C80.252 76.069 79.2092 75.3402 78.3307 74.4211C77.4523 73.5021 76.7554 72.4107 76.2799 71.2095C75.8045 70.0083 75.5598 68.7208 75.5598 67.4205V38.6584C75.5598 37.3599 75.804 36.074 76.2786 34.8743C76.7533 33.6746 77.4489 32.5845 78.3259 31.6663C80.0969 29.8118 82.4991 28.77 85.0038 28.77H112.473C113.713 28.77 114.941 29.0258 116.087 29.5227C117.233 30.0197 118.274 30.748 119.151 31.6663C120.028 32.5845 120.724 33.6746 121.198 34.8743C121.673 36.074 121.917 37.3599 121.917 38.6584V67.4205C121.852 69.0049 121.45 70.5541 120.742 71.9557C120.033 73.3574 119.036 74.5762 117.821 75.5238C116.607 76.4714 115.206 77.124 113.721 77.4341C112.236 77.7443 110.703 77.7042 109.234 77.3169V88.8296C111.114 88.0593 113.155 87.825 115.149 88.1508C117.143 88.4765 119.019 89.3506 120.585 90.6837C121.881 89.9176 123.311 89.4314 124.789 89.2537C126.268 89.076 127.765 89.2106 129.193 89.6493C130.621 90.0881 131.95 90.8223 133.103 91.8083C134.255 92.7944 135.207 94.0124 135.902 95.3902C137.502 94.9973 139.166 94.9817 140.773 95.3446C142.38 95.7074 143.89 96.4397 145.193 97.4884C146.497 98.537 147.561 99.8759 148.31 101.408C149.059 102.941 149.473 104.628 149.523 106.348V129.453H153.677C156.636 129.449 159.473 128.216 161.565 126.025C163.658 123.835 164.835 120.864 164.839 117.766L164.847 17.0829ZM13.7423 54.8381V80.0267C13.7423 80.7412 14.0133 81.4264 14.4958 81.9316C14.9784 82.4368 15.6328 82.7207 16.3152 82.7207C16.9975 82.7207 17.652 82.4368 18.1345 81.9316C18.617 81.4264 18.888 80.7412 18.888 80.0267V54.8381C18.888 54.1236 18.617 53.4384 18.1345 52.9332C17.652 52.428 16.9975 52.1441 16.3152 52.1441C15.6328 52.1441 14.9784 52.428 14.4958 52.9332C14.0133 53.4384 13.7423 54.1236 13.7423 54.8381Z" fill="#FFD651"/>
</svg>
