<svg width="170" height="171" viewBox="0 0 170 171" fill="none" xmlns="http://www.w3.org/2000/svg">
<path d="M167.244 142.588L135.089 110.387C132.792 108.14 130.411 111.483 128.895 112.948L118.077 102.122C123.376 94.4895 126.966 85.8017 128.604 76.6521C138.975 72.2398 147.822 64.8736 154.048 55.4685C160.274 46.0634 163.603 35.0339 163.623 23.7499C163.623 23.0667 163.352 22.4115 162.869 21.9284C162.387 21.4453 161.732 21.1738 161.05 21.1738H106.157C90.928 21.186 76.3255 27.2467 65.5526 38.0265C54.7797 48.8064 48.716 63.4251 48.6917 78.6762V103.257C39.0607 99.1416 31.3329 91.5415 27.0501 81.9727C22.7674 72.4039 22.2445 61.5698 25.5858 51.6319C28.9272 41.6941 35.8871 33.3832 45.0769 28.3572C54.2668 23.3313 65.011 21.9599 75.1659 24.5166C75.8279 24.6834 76.5288 24.58 77.1146 24.2291C77.7004 23.8783 78.123 23.3088 78.2895 22.6459C78.456 21.983 78.3528 21.281 78.0024 20.6944C77.6521 20.1078 77.0834 19.6845 76.4215 19.5178C67.6735 17.3021 58.4719 17.6718 49.9293 20.5822C41.3868 23.4927 33.869 28.8191 28.2852 35.9176C22.7014 43.016 19.2906 51.5824 18.4653 60.581C17.6399 69.5796 19.4354 78.6249 23.6346 86.6232C27.8338 94.6215 34.2568 101.23 42.127 105.65C49.9973 110.071 58.9777 112.113 67.9823 111.53C76.9869 110.947 85.6302 107.765 92.8669 102.367C100.104 96.969 105.624 89.5873 108.76 81.1143C113.559 80.9164 118.315 80.118 122.916 78.7376C113.507 123.421 54.5179 140.165 22.8147 107.151C12.2251 96.5532 6.00243 82.3545 5.38227 67.3745C4.76212 52.3945 9.7898 37.7288 19.4671 26.2891C29.1443 14.8494 42.7634 7.47248 57.6203 5.62296C72.4772 3.77343 87.4854 7.58658 99.6649 16.3053C99.9385 16.5168 100.252 16.671 100.586 16.7586C100.921 16.8462 101.269 16.8654 101.611 16.815C101.953 16.7647 102.281 16.6459 102.576 16.4657C102.871 16.2855 103.127 16.0476 103.328 15.7662C103.53 15.4848 103.672 15.1656 103.748 14.8278C103.823 14.49 103.83 14.1405 103.767 13.8001C103.704 13.4597 103.574 13.1354 103.384 12.8466C103.193 12.5578 102.946 12.3104 102.658 12.1191C90.1899 3.16793 74.9482 -1.0492 59.6595 0.222016C44.3708 1.49323 30.0324 8.16988 19.2087 19.0578C-35.2326 76.4375 36.7331 161.671 102.153 118.054L112.994 128.895C111.608 130.428 108.079 132.843 110.437 135.098L142.592 167.299C144.368 169.059 146.765 170.046 149.264 170.046C151.762 170.046 154.16 169.059 155.936 167.299L167.251 155.975C169.017 154.195 170.007 151.788 170.005 149.28C170.004 146.772 169.011 144.366 167.244 142.588ZM106.18 26.3031H158.118C155.308 38.6392 132.716 48.6216 106.18 48.6216C84.2688 48.6216 65.6955 54.7552 56.0184 63.9556C59.2047 53.1004 65.8112 43.5682 74.8518 36.7822C83.8923 29.9962 94.8819 26.3202 106.18 26.3031ZM65.0065 106.553C61.2383 106.555 57.4877 106.039 53.8595 105.02V81.2523H103.24C100.038 88.7535 94.7093 95.149 87.9131 99.6463C81.1169 104.144 73.1524 106.545 65.0065 106.553ZM106.18 76.0541H54.2805C57.0979 63.7256 79.6523 53.7432 106.18 53.7432C128.022 53.7432 146.596 47.6633 156.311 38.5089C153.114 49.3455 146.506 58.8577 137.473 65.6287C128.439 72.3997 117.464 76.0671 106.18 76.0848V76.0541ZM106.31 114.857C109.463 112.273 112.355 109.387 114.946 106.239L125.251 116.559L116.63 125.192L106.31 114.857ZM163.6 152.241L152.292 163.596C151.484 164.398 150.393 164.848 149.256 164.848C148.119 164.848 147.028 164.398 146.221 163.596L115.895 133.242L133.274 115.853L163.6 146.207C164.401 147.012 164.852 148.102 164.852 149.239C164.852 150.376 164.401 151.467 163.6 152.272V152.241Z" fill="#FFD651"/>
</svg>
