<svg width="215" height="129" viewBox="0 0 215 129" fill="none" xmlns="http://www.w3.org/2000/svg">
<path d="M110.94 43C110.008 43.0287 109.113 43.4157 108.453 44.0893L89.5475 62.9377L77.9017 51.3277C74.6408 47.9307 69.3733 53.1767 72.7775 56.4303L86.989 70.606C88.4008 72.0178 90.6942 72.0178 92.1132 70.606L113.577 49.1992C115.942 46.9058 114.201 43 110.947 43H110.94ZM3.58333 71.6667H25.0833C27.0685 71.6667 28.6667 73.2648 28.6667 75.25C28.6667 77.2352 27.0685 78.8333 25.0833 78.8333H3.58333C1.59817 78.8333 0 77.2352 0 75.25C0 73.2648 1.59817 71.6667 3.58333 71.6667ZM3.58333 43H25.0833C27.0685 43 28.6667 44.5982 28.6667 46.5833C28.6667 48.5685 27.0685 50.1667 25.0833 50.1667H3.58333C1.59817 50.1667 0 48.5685 0 46.5833C0 44.5982 1.59817 43 3.58333 43ZM3.58333 14.3333H25.0833C27.0685 14.3333 28.6667 15.9315 28.6667 17.9167C28.6667 19.9018 27.0685 21.5 25.0833 21.5H3.58333C1.59817 21.5 0 19.9018 0 17.9167C0 15.9315 1.59817 14.3333 3.58333 14.3333ZM175.583 93.1667C165.729 93.1667 157.667 101.229 157.667 111.083C157.667 120.937 165.729 129 175.583 129C185.437 129 193.5 120.937 193.5 111.083C193.5 101.229 185.437 93.1667 175.583 93.1667ZM175.583 100.333C181.56 100.333 186.333 105.106 186.333 111.083C186.333 117.06 181.56 121.833 175.583 121.833C169.606 121.833 164.833 117.06 164.833 111.083C164.833 105.106 169.606 100.333 175.583 100.333ZM82.4167 93.1667C72.5625 93.1667 64.5 101.229 64.5 111.083C64.5 120.937 72.5625 129 82.4167 129C92.2708 129 100.333 120.937 100.333 111.083C100.333 101.229 92.2708 93.1667 82.4167 93.1667ZM82.4167 100.333C88.3937 100.333 93.1667 105.106 93.1667 111.083C93.1667 117.06 88.3937 121.833 82.4167 121.833C76.4397 121.833 71.6667 117.06 71.6667 111.083C71.6667 105.106 76.4397 100.333 82.4167 100.333ZM46.5833 0C40.6923 0 35.8333 4.859 35.8333 10.75V89.5833C35.8333 95.4743 40.6923 100.333 46.5833 100.333H60.9167C65.7613 100.405 65.7613 93.095 60.9167 93.1667H46.5833C44.5337 93.1667 43 91.633 43 89.5833V10.75C43 8.70033 44.5337 7.16667 46.5833 7.16667H139.75C141.8 7.16667 143.333 8.70033 143.333 10.75V93.1667H103.917C99.1867 93.1667 99.2727 100.405 103.917 100.333H154.083C158.813 100.333 158.77 93.1667 154.083 93.1667H150.5V28.6667H180.793L207.833 70.9213V89.5833C207.833 91.633 206.3 93.1667 204.25 93.1667H197.083C192.396 93.1667 192.396 100.333 197.083 100.333H204.25C210.141 100.333 215 95.4743 215 89.5833V69.875C215 69.1942 214.807 68.5133 214.441 67.94L185.774 23.1483C185.115 22.1235 183.983 21.5 182.75 21.5H150.5V10.75C150.5 4.859 145.641 0 139.75 0H46.5833Z" fill="#FFD651"/>
</svg>
