<svg width="17" height="19" viewBox="0 0 17 19" fill="none" xmlns="http://www.w3.org/2000/svg">
<path d="M1.5957 1.50977V1.50879L15.4678 9.51855C15.4996 9.53696 15.5081 9.5767 15.4922 9.60547L15.4678 9.62891L1.5957 17.6387H1.59473C1.58096 17.6466 1.57112 17.6486 1.56348 17.6484C1.55433 17.6483 1.54333 17.645 1.53223 17.6387C1.52112 17.6323 1.51262 17.6241 1.50781 17.6162C1.50383 17.6096 1.50004 17.5999 1.5 17.584V14.6611C1.50008 14.65 1.50328 14.6393 1.50879 14.6299L1.53223 14.6064L8.65332 10.4951C9.3178 10.111 9.35919 9.1875 8.77734 8.73633L8.65332 8.65332L1.53223 4.54199L1.50879 4.51855C1.50328 4.50908 1.5 4.49778 1.5 4.48633V1.56445C1.50008 1.51541 1.55338 1.48535 1.5957 1.50977Z" fill="white" stroke="white"/>
<mask id="path-2-inside-1_125_946" fill="white">
<path d="M15.718 9.08648L1.84515 1.07671C1.77715 1.03725 1.70598 1.01893 1.63481 1.00977L15.0133 8.7338C15.3889 8.95083 15.3889 9.49306 15.0133 9.71009L1.1405 17.7199C1.10527 17.7403 1.06827 17.7523 1.03198 17.7643C1.1405 18.0863 1.52559 18.2568 1.84515 18.0722L15.718 10.0628C16.0939 9.84574 16.0939 9.30316 15.718 9.08648Z"/>
</mask>
<path d="M15.718 9.08648L1.84515 1.07671C1.77715 1.03725 1.70598 1.01893 1.63481 1.00977L15.0133 8.7338C15.3889 8.95083 15.3889 9.49306 15.0133 9.71009L1.1405 17.7199C1.10527 17.7403 1.06827 17.7523 1.03198 17.7643C1.1405 18.0863 1.52559 18.2568 1.84515 18.0722L15.718 10.0628C16.0939 9.84574 16.0939 9.30316 15.718 9.08648Z" fill="white"/>
<path d="M15.718 9.08648L15.218 9.9525L15.2186 9.95287L15.718 9.08648ZM1.84515 1.07671L1.34323 1.94162L1.34514 1.94273L1.84515 1.07671ZM1.63481 1.00977L1.76247 0.0179476L1.13481 1.87579L1.63481 1.00977ZM15.0133 8.7338L15.5137 7.86797L15.5133 7.86777L15.0133 8.7338ZM15.0133 9.71009L15.5133 10.5761L15.5137 10.5759L15.0133 9.71009ZM1.1405 17.7199L0.640484 16.8538L0.63878 16.8548L1.1405 17.7199ZM1.03198 17.7643L0.718522 16.8147L-0.23698 17.1301L0.084341 18.0836L1.03198 17.7643ZM1.84515 18.0722L1.34515 17.2062L1.3449 17.2063L1.84515 18.0722ZM15.718 10.0628L15.218 9.19674L15.218 9.19675L15.718 10.0628ZM15.718 9.08648L16.218 8.22046L2.34516 0.21069L1.84515 1.07671L1.34514 1.94273L15.218 9.9525L15.718 9.08648ZM1.84515 1.07671L2.34707 0.211793C2.12854 0.0849812 1.91773 0.0379313 1.76247 0.0179476L1.63481 1.00977L1.50715 2.00158C1.49423 1.99992 1.42576 1.98951 1.34323 1.94162L1.84515 1.07671ZM1.63481 1.00977L1.13481 1.87579L14.5133 9.59983L15.0133 8.7338L15.5133 7.86777L2.13481 0.143739L1.63481 1.00977ZM15.0133 8.7338L14.513 9.59963C14.2223 9.43168 14.2223 9.01221 14.513 8.84426L15.0133 9.71009L15.5137 10.5759C16.5555 9.97391 16.5555 8.46998 15.5137 7.86797L15.0133 8.7338ZM15.0133 9.71009L14.5133 8.84408L0.640484 16.8538L1.1405 17.7199L1.64051 18.5859L15.5133 10.5761L15.0133 9.71009ZM1.1405 17.7199L0.63878 16.8548C0.678985 16.8315 0.711195 16.8183 0.725389 16.8128C0.732426 16.81 0.736439 16.8087 0.735027 16.8092C0.732586 16.81 0.729892 16.8109 0.718522 16.8147L1.03198 17.7643L1.34544 18.7139C1.36333 18.708 1.50181 18.6663 1.64222 18.5849L1.1405 17.7199ZM1.03198 17.7643L0.084341 18.0836C0.381723 18.9661 1.44463 19.4585 2.3454 18.9381L1.84515 18.0722L1.3449 17.2063C1.60655 17.0551 1.89927 17.2065 1.97962 17.4449L1.03198 17.7643ZM1.84515 18.0722L2.34515 18.9382L16.218 10.9288L15.718 10.0628L15.218 9.19675L1.34515 17.2062L1.84515 18.0722ZM15.718 10.0628L16.218 10.9288C17.26 10.3272 17.2613 8.82182 16.2173 8.22009L15.718 9.08648L15.2186 9.95287C14.9265 9.7845 14.9278 9.36429 15.218 9.19674L15.718 10.0628Z" fill="white" mask="url(#path-2-inside-1_125_946)"/>
<path d="M1 1.56456V4.48675C1 4.68793 1.10746 4.87431 1.28186 4.97472L8.40307 9.08601C8.77865 9.30304 8.77865 9.84527 8.40307 10.0623L1.28186 14.1736C1.10746 14.2744 1 14.4604 1 14.6616V17.5838C1 18.0175 1.46965 18.2888 1.84523 18.0717L15.7181 10.0623C16.0936 9.84527 16.0936 9.30304 15.7181 9.08601L1.84523 1.07624C1.46965 0.859558 1 1.1305 1 1.56456Z" stroke="white" stroke-miterlimit="10"/>
</svg>
