<svg width="17" height="19" viewBox="0 0 17 19" fill="none" xmlns="http://www.w3.org/2000/svg">
<path d="M15.4043 17.4902L15.4043 17.4912L1.53223 9.48145C1.50037 9.46304 1.49188 9.4233 1.50781 9.39453L1.53223 9.3711L15.4043 1.36133L15.4053 1.36133C15.419 1.35342 15.4289 1.35143 15.4365 1.35156C15.4457 1.35172 15.4567 1.35498 15.4678 1.36133C15.4789 1.36774 15.4874 1.37587 15.4922 1.38379C15.4962 1.39042 15.5 1.40009 15.5 1.41602L15.5 4.33887C15.4999 4.34996 15.4967 4.36066 15.4912 4.37012L15.4678 4.39355L8.34668 8.50488C7.6822 8.88896 7.64081 9.8125 8.22266 10.2637L8.34668 10.3467L15.4678 14.458L15.4912 14.4814C15.4967 14.4909 15.5 14.5022 15.5 14.5137L15.5 17.4355C15.4999 17.4846 15.4466 17.5147 15.4043 17.4902Z" fill="white" stroke="white"/>
<mask id="path-2-inside-1_125_954" fill="white">
<path d="M1.28178 9.91352L15.1546 17.9233C15.2226 17.9628 15.2938 17.9811 15.3649 17.9902L1.98643 10.2662C1.61086 10.0492 1.61086 9.50694 1.98643 9.28991L15.8593 1.28013C15.8945 1.2597 15.9315 1.24772 15.9678 1.23574C15.8593 0.913715 15.4742 0.743191 15.1546 0.927809L1.28178 8.93723C0.905852 9.15426 0.905852 9.69684 1.28178 9.91352Z"/>
</mask>
<path d="M1.28178 9.91352L15.1546 17.9233C15.2226 17.9628 15.2938 17.9811 15.3649 17.9902L1.98643 10.2662C1.61086 10.0492 1.61086 9.50694 1.98643 9.28991L15.8593 1.28013C15.8945 1.2597 15.9315 1.24772 15.9678 1.23574C15.8593 0.913715 15.4742 0.743191 15.1546 0.927809L1.28178 8.93723C0.905852 9.15426 0.905852 9.69684 1.28178 9.91352Z" fill="white"/>
<path d="M1.28178 9.91352L1.7818 9.0475L1.78115 9.04713L1.28178 9.91352ZM15.1546 17.9233L15.6565 17.0584L15.6546 17.0573L15.1546 17.9233ZM15.3649 17.9902L15.2373 18.9821L15.8649 17.1242L15.3649 17.9902ZM1.98643 10.2662L1.4861 11.132L1.48644 11.1322L1.98643 10.2662ZM1.98643 9.28991L1.48642 8.42389L1.4861 8.42407L1.98643 9.28991ZM15.8593 1.28013L16.3593 2.14615L16.361 2.14517L15.8593 1.28013ZM15.9678 1.23574L16.2812 2.18534L17.2367 1.86993L16.9154 0.916405L15.9678 1.23574ZM15.1546 0.927809L15.6546 1.79384L15.6549 1.79369L15.1546 0.927809ZM1.28178 8.93723L1.78176 9.80326L1.78178 9.80326L1.28178 8.93723ZM1.28178 9.91352L0.781769 10.7795L14.6546 18.7893L15.1546 17.9233L15.6546 17.0573L1.7818 9.0475L1.28178 9.91352ZM15.1546 17.9233L14.6527 18.7882C14.8712 18.915 15.082 18.9621 15.2373 18.9821L15.3649 17.9902L15.4926 16.9984C15.5055 17.0001 15.574 17.0105 15.6565 17.0584L15.1546 17.9233ZM15.3649 17.9902L15.8649 17.1242L2.48643 9.40017L1.98643 10.2662L1.48644 11.1322L14.8649 18.8563L15.3649 17.9902ZM1.98643 10.2662L2.48677 9.40037C2.77741 9.56832 2.77741 9.98779 2.48677 10.1557L1.98643 9.28991L1.4861 8.42407C0.444299 9.02609 0.444299 10.53 1.4861 11.132L1.98643 10.2662ZM1.98643 9.28991L2.48645 10.1559L16.3593 2.14615L15.8593 1.28013L15.3592 0.414118L1.48642 8.42389L1.98643 9.28991ZM15.8593 1.28013L16.361 2.14517C16.3208 2.16848 16.2886 2.18174 16.2744 2.18724C16.2673 2.18996 16.2633 2.19131 16.2647 2.19082C16.2672 2.18999 16.2699 2.1891 16.2812 2.18534L15.9678 1.23574L15.6543 0.28614C15.6364 0.292046 15.4979 0.333666 15.3575 0.415104L15.8593 1.28013ZM15.9678 1.23574L16.9154 0.916405C16.618 0.0339145 15.5551 -0.458473 14.6544 0.061926L15.1546 0.927809L15.6549 1.79369C15.3932 1.94485 15.1005 1.79352 15.0201 1.55508L15.9678 1.23574ZM15.1546 0.927809L14.6546 0.061781L0.781786 8.0712L1.28178 8.93723L1.78178 9.80326L15.6546 1.79384L15.1546 0.927809ZM1.28178 8.93723L0.781803 8.07119C-0.26028 8.67281 -0.261567 10.1782 0.782413 10.7799L1.28178 9.91352L1.78115 9.04713C2.07327 9.2155 2.07198 9.63572 1.78176 9.80326L1.28178 8.93723Z" fill="white" mask="url(#path-2-inside-1_125_954)"/>
<path d="M16 17.4354L16 14.5132C16 14.3121 15.8925 14.1257 15.7181 14.0253L8.59693 9.91399C8.22135 9.69696 8.22135 9.15473 8.59693 8.9377L15.7181 4.82641C15.8925 4.72564 16 4.53961 16 4.33844L16 1.41625C16 0.982535 15.5303 0.711244 15.1548 0.928277L1.28195 8.9377C0.906368 9.15473 0.906368 9.69696 1.28195 9.91399L15.1548 17.9238C15.5303 18.1404 16 17.8695 16 17.4354Z" stroke="white" stroke-miterlimit="10"/>
</svg>
