<svg width="60" height="27" viewBox="0 0 60 27" fill="none" xmlns="http://www.w3.org/2000/svg">
<path fill-rule="evenodd" clip-rule="evenodd" d="M59.9545 18.7757C59.7825 18.5401 59.5245 18.3641 59.3125 18.2541C58.9705 18.0778 58.741 18.1038 58.2855 17.9935C58.231 17.9803 58.0985 17.8402 58.0285 17.8195C57.8935 17.7806 57.652 17.854 57.644 17.7329C56.6005 17.5697 55.574 17.3954 54.691 17.1243C54.1675 16.9283 54.4645 16.1766 53.7925 16.0812C53.3136 15.826 53.2006 15.3234 52.7651 15.0387C52.2926 14.2288 51.5626 13.5932 51.0966 12.7792C51.1021 12.6594 51.0361 12.5883 50.9681 12.5182C50.3946 11.1979 49.9656 9.77841 49.4276 8.43405C48.7756 7.16618 47.9491 6.01644 46.9881 4.95774C46.6431 4.77429 46.2336 4.5895 45.9611 4.43617C45.7551 4.32008 45.4516 4.06184 45.3191 4.00193C45.1641 3.93153 44.9631 3.97993 44.8061 3.91495C44.5636 3.81476 44.3121 3.67803 44.0356 3.56735C42.9726 3.14123 41.8847 2.69413 40.8262 2.26361C39.5792 1.9485 38.3227 1.64084 37.2317 1.22115C35.9132 0.954449 35.0442 0.384146 33.6367 0.178025C32.3767 -0.0406195 30.7277 0.00338019 29.1438 0.00405711C29.1193 0.0927333 29.0313 0.0795329 28.8868 0.0907021C27.9998 0.162794 26.8938 0.178024 26.0623 0.351654C25.8488 0.554729 25.3653 0.574698 25.0353 0.699251C24.7208 0.862727 24.4538 1.05869 24.0083 1.13349C23.4493 1.50783 22.9118 1.8974 22.0828 2.0893C20.2998 2.33096 18.4378 2.5188 16.8194 2.87148C16.1334 3.13141 15.2634 3.26714 14.5084 3.47969C13.6399 3.64452 12.8399 3.85673 12.0694 4.08824C11.3264 4.30959 10.7014 4.61048 9.88692 4.78377C9.31292 5.14795 8.59143 5.41297 7.70444 5.56561C7.03544 5.83672 6.16695 5.97278 5.65045 6.34779C5.28646 6.48148 5.10346 6.78812 4.62296 6.6084C4.05997 6.60536 3.82997 6.82603 3.46647 6.95701C1.60749 8.21879 0.801993 10.1937 0.128499 12.258C0.0809993 13.2202 0.146499 13.8152 0 14.7781C0.211998 15.3877 0.324997 16.0646 0.513496 16.6897C0.737994 16.7696 0.796993 16.9615 0.770494 17.2113C2.06298 18.3052 3.43297 19.3483 4.74996 20.4267C6.23845 21.3892 7.83143 22.2807 9.75692 22.9472C12.0819 23.2846 14.3774 23.643 17.0744 23.7293C18.0493 24.0255 19.7648 23.8197 20.9258 23.99C20.9813 24.1842 21.5583 24.0251 21.8243 24.0769H22.8513C23.4228 24.1829 23.9758 24.301 24.6488 24.3379C26.1843 24.392 27.4343 24.2533 28.7573 24.1639C31.6662 24.1937 34.5572 24.2353 37.1022 24.5115C37.1032 24.6489 37.3312 24.5586 37.4872 24.5985C37.6577 24.6418 37.7117 24.7268 37.8722 24.7721C38.0447 24.8215 38.1582 24.8039 38.3862 24.8591C38.4547 24.876 38.6867 25.0134 38.7712 25.0334C38.9242 25.0693 39.1282 25.0036 39.2847 25.0334C39.3612 25.048 39.5462 25.1827 39.6697 25.207C41.3507 25.536 43.2091 25.6105 44.8051 25.9892C47.2961 25.9215 49.7741 26.2407 52.1226 25.9892C52.6441 25.7926 53.2961 25.6829 53.7915 25.4677C54.1915 25.16 54.7695 24.9711 55.332 24.7725C56.2845 24.2878 57.314 23.8549 58.0275 23.2084C58.53 22.4479 58.8445 21.5595 59.183 20.6883C59.364 19.9982 60.2015 19.7541 59.9545 18.7757ZM13.6089 5.21835C13.8939 5.15134 14.1094 5.03592 14.5074 5.04472C14.9669 4.80577 15.8184 4.83149 16.3049 4.61014C17.5679 4.39353 18.7033 4.09027 20.0278 3.91495C20.4498 3.85132 20.2243 4.08756 20.0278 4.08891C19.9823 4.20264 19.8013 4.22531 19.7708 4.34953C19.6368 4.54888 19.2718 4.59119 19.1293 4.78445C18.5963 5.03152 18.2438 5.4018 17.7169 5.65293C16.1084 5.83198 14.4624 5.62721 12.8384 5.56629C12.7944 5.24678 13.3059 5.30331 13.6089 5.21835ZM6.03395 7.73919C6.07945 7.62513 6.25945 7.60246 6.29095 7.47824C6.63944 7.42476 6.89194 7.30563 7.06094 7.13064C8.25793 6.86901 9.36192 6.54477 10.3989 6.17484C12.8209 6.45847 15.5639 6.94991 18.2298 6.78305C19.3708 6.42597 20.1403 5.81709 20.9258 5.21869C21.7988 4.70863 22.5428 4.11159 23.2368 3.4807C25.1338 3.02717 25.7603 1.71294 28.3723 1.74238C28.7103 1.65269 29.1603 1.63847 29.6563 1.6554C29.6438 2.57431 28.5783 2.77942 28.2438 3.4807C27.7453 3.57784 27.5873 3.90513 27.0883 4.00227C26.7723 4.19384 26.5258 4.43245 26.0613 4.5235C25.8203 4.79528 25.2753 4.8606 25.0343 5.13204C24.6038 5.24644 24.5013 5.5822 24.1358 5.74026C24.0753 6.1921 23.8463 6.5292 23.8788 7.044C24.3448 8.08984 25.5828 8.61377 26.5753 9.30321C27.1008 9.43961 27.5408 9.63456 27.9873 9.82478C28.4848 9.98047 28.9398 10.1649 29.2708 10.433C30.9517 10.7725 32.0382 11.5144 33.3792 12.0847C34.7802 12.5842 36.5537 12.832 37.8722 13.3881C37.6687 13.6033 36.9742 13.4233 36.7162 13.3881C36.2572 13.3806 35.9747 13.253 35.5617 13.2141C34.8717 13.073 34.1552 12.9501 33.6352 12.6929C32.3232 12.3355 30.7022 12.1872 29.5273 11.7367C28.2483 11.357 27.4378 10.6598 26.0608 10.3463C24.8708 9.93545 23.6498 9.54521 22.7233 8.95629C21.2553 8.76235 20.3893 8.16023 19.1288 7.82618C18.0368 7.92738 17.2474 8.233 16.4324 8.52205H14.1219C13.7599 8.3606 13.2764 8.28276 12.8379 8.17411C12.5694 7.9795 12.1219 7.90605 11.8109 7.73987C10.8029 7.58215 9.60942 7.54965 8.60093 7.39193C7.61644 7.47858 6.83394 7.70264 6.03345 7.9135C5.61245 7.97611 5.83795 7.73987 6.03395 7.73919ZM3.33797 14.2569V14.6908C3.23847 14.8495 3.19997 14.639 3.20947 14.5172V14.0826C3.30947 13.9245 3.34747 14.135 3.33797 14.2569ZM4.49346 12.9531C4.13797 12.789 3.78947 12.6188 3.46647 12.4316C3.30047 10.9579 4.10247 10.1392 4.74996 9.21657C5.06646 9.22773 5.36846 9.22943 5.52045 9.12958C6.25545 8.78706 7.20994 8.59279 8.21643 8.43405C8.98542 8.40629 9.36342 8.64288 10.0139 8.695C10.0374 8.8842 9.90892 8.97152 9.62892 8.95595C9.71692 9.18949 9.36342 9.12383 9.24392 9.2169C9.19892 9.50493 8.85943 9.59395 8.60193 9.73813C8.14093 10.0922 7.68744 10.4516 7.18994 10.7809C6.83244 11.2057 6.28445 11.5008 5.90595 11.9107C5.55695 12.0224 5.53645 12.3558 5.13596 12.4319C4.93546 12.6147 4.90546 12.9136 4.49346 12.9531ZM6.16295 18.602C5.57395 18.6525 5.56445 18.312 5.26396 18.1674C5.20696 17.0763 5.16696 15.9739 5.00746 14.9521C5.38496 14.7812 5.71045 15.2465 6.16295 15.2993C5.96895 16.2288 5.94245 17.6757 6.16295 18.602ZM8.60193 19.9928C8.12193 19.9413 7.93793 19.6888 7.57494 19.5582C7.48994 18.3414 7.22394 17.2465 7.31844 15.9082C7.74394 15.939 7.87543 16.1685 8.08843 16.3428C8.48293 16.3652 8.66543 16.5313 8.98693 16.6034C8.58043 17.5443 8.58293 18.7631 8.60193 19.9928ZM8.08843 14.4305C7.50944 14.1273 6.79894 13.913 6.16295 13.6483C6.44495 13.1735 7.11794 12.9623 7.44594 12.5182C7.94193 12.2163 8.35293 11.8579 8.73043 11.4754C9.66392 10.8043 10.4724 10.0478 11.5549 9.47718C11.5999 9.36278 11.7804 9.34044 11.8114 9.21623C12.7329 9.31675 13.4254 9.57195 14.2504 9.73745H16.3049C16.2204 10.057 15.8319 10.1703 15.5344 10.3457C14.8774 10.9441 13.9129 11.334 13.3519 11.997C12.2199 12.6499 11.4209 13.5285 10.5279 14.3435C10.3614 14.6075 10.2859 14.9328 10.1424 15.2124C9.09392 15.1981 8.84543 14.6424 8.08843 14.4305ZM10.9129 20.7746C10.2499 20.7296 10.4964 20.4646 10.5279 20.0794V16.6901C10.6769 16.6762 10.7559 16.7094 10.7844 16.7767V19.0366C10.6784 19.2823 10.9649 19.2617 10.9129 19.4712C10.8399 19.9291 11.0229 20.5685 10.9129 20.7746ZM13.8654 21.3828C13.3149 21.4078 13.0169 21.262 12.7104 21.1218C12.7499 19.6756 12.3414 18.533 12.4534 17.0377C13.0444 17.0434 13.4759 17.1568 13.8654 17.2983C13.6184 18.4836 13.3889 20.2405 13.8654 21.3828ZM12.7104 15.8212C12.3064 15.7468 12.1679 15.4926 11.6829 15.4737C11.8494 15.0936 12.3309 14.9274 12.7104 14.6911C12.8709 14.3077 13.3329 14.1283 13.6089 13.8226C14.2704 13.2855 14.9824 12.7829 15.6629 12.2583C17.1104 11.2683 18.5123 10.2478 19.8993 9.2169C20.6613 9.45382 21.3628 9.73204 22.2103 9.9121C22.7163 10.2935 23.3558 10.5846 23.8788 10.9545C26.0708 11.4697 27.5498 12.4678 29.5278 13.1275C30.6187 13.2584 31.5787 13.4771 32.4802 13.736C32.3282 14.3283 31.6852 14.5882 31.4532 15.1264C31.0222 15.342 30.5607 16.377 31.3252 16.6034C32.4177 16.6478 32.4462 15.9725 32.8657 15.5606C33.1562 15.0912 33.4297 14.6092 33.7642 14.1706C35.5242 14.6299 37.7492 14.7751 39.5412 15.213C39.4482 15.5586 39.0287 15.7955 38.7712 16.0819C38.5177 16.3641 38.3897 16.7161 38.0007 16.951C37.9697 17.2421 37.7242 17.4986 38.1292 17.6462C38.0207 17.851 37.4672 17.6408 37.3587 17.5592C37.0237 17.5257 36.6542 17.5146 36.4602 17.3856C35.6717 17.3975 35.1967 17.1981 34.5347 17.1247C33.1992 16.9862 31.8237 16.8742 30.4262 16.7767H26.3183C25.2163 16.9003 23.8623 16.8529 22.8513 17.0377H19.8988C18.6968 16.9527 17.7279 16.7111 16.4324 16.6901C16.1414 16.5107 15.5824 16.5124 15.2774 16.3428C14.7894 16.2961 14.5654 16.071 13.9934 16.0819C13.6784 15.9191 13.1144 15.9238 12.7104 15.8212ZM46.4741 23.8163C44.3066 23.6034 42.5496 23.1127 40.5687 22.7735C39.1477 22.8084 38.0872 22.5996 36.9742 22.4263C36.9842 21.7243 36.8987 21.087 36.0757 20.9489C35.6847 21.0027 35.4192 21.1418 35.4337 21.4705C35.1257 21.5798 35.5042 22.1555 35.1772 22.2526C34.4232 22.2249 35.0907 21.7754 34.9202 21.3835V20.2537C34.6912 19.9169 34.7642 19.3744 33.8932 19.4715C33.1677 19.4729 33.5067 20.1948 33.2512 20.5143V21.5574C33.2617 21.8827 33.3482 22.2604 32.7372 22.1657C32.2257 22.2222 32.3697 21.835 32.3522 21.5574C32.4357 21.24 32.2657 21.0941 32.0952 20.9489C31.3352 21.0714 31.2602 21.658 30.9402 22.0787H29.7848C29.4103 21.463 30.0887 20.1346 28.8858 20.0801C27.7308 20.2246 28.3328 21.5595 27.9873 22.2526C27.5158 22.2242 26.8508 22.3268 26.5753 22.1657C26.4893 21.4698 26.7933 20.5113 26.3183 20.0801C26.0158 20.0818 25.9398 19.9301 25.5483 19.9931C24.3198 20.0885 24.7203 21.2863 24.6493 22.1657C22.5173 22.1024 20.7413 21.7984 18.6153 21.7311C18.1608 21.7419 17.8853 21.8736 17.5884 21.992C16.7524 21.8631 15.8519 21.7768 15.0209 21.6444C15.1439 21.3804 15.2799 21.1246 15.4059 20.8619C15.5419 20.317 15.0299 19.3324 15.9199 19.2979C16.0614 19.8973 16.1194 20.5532 17.0749 20.6016C18.6568 20.471 17.6539 19.1297 18.1018 18.2548C18.5653 18.2893 18.9628 18.3671 19.3853 18.4291C19.2448 18.6816 19.2698 19.0454 19.1293 19.2979C19.1688 19.8215 18.9213 20.5394 19.6423 20.6016C21.0513 20.7225 20.4803 19.2123 20.4128 18.603C21.0753 18.4138 22.2378 18.5638 23.1088 18.5161C23.5923 18.4382 24.1963 18.4409 24.6493 18.3421C25.3493 18.3235 26.1928 18.4023 26.7033 18.2548H29.6563C31.2257 18.4094 32.9272 18.4741 34.4062 18.6893C35.9092 18.8887 37.1317 19.2779 38.5142 19.5585C39.7582 19.9328 41.2102 20.1671 42.4946 20.5143C43.8371 20.7932 44.9616 21.2197 46.3456 21.4705C46.4706 21.7534 46.2706 22.2672 46.3456 22.7739C46.3161 23.1526 46.6731 23.5967 46.4741 23.8163ZM50.1976 23.5557C49.3336 23.666 48.6446 23.8948 47.5016 23.8163C47.4656 23.6762 47.6231 23.6671 47.6301 23.5557C47.6206 23.1665 48.1061 23.6085 48.5286 23.4684C48.6326 23.4521 48.6566 23.3814 48.7856 23.3814C49.3801 23.2335 49.1111 22.5007 49.1706 21.9914C49.4646 22.0824 49.9451 22.0465 50.1976 22.1653C50.2991 22.3897 50.1301 23.0751 50.1976 23.5557ZM52.7646 23.2081C52.2451 23.2325 51.8726 23.3567 51.3526 23.3817C51.3861 22.9989 51.5581 22.7099 51.4811 22.2523H52.8931C53.0311 22.4083 52.8591 22.9363 52.7646 23.2081ZM56.8735 19.7315C56.503 19.8574 56.1115 19.9691 55.8465 20.166C54.914 20.317 53.9885 20.4727 53.0221 20.6006C51.4731 20.6541 50.1496 20.4459 48.9141 20.253C47.6301 20.0527 46.4661 19.8841 45.3191 19.5578C44.3066 19.2001 43.0381 19.0163 41.9816 18.6887C40.8292 18.4551 39.6997 18.206 38.6437 17.9068C38.6817 17.6723 39.1837 17.7505 39.2857 17.5589C39.6152 17.5508 39.4687 17.2198 39.7992 17.2116C39.8132 16.9896 40.0342 16.9074 40.1842 16.7767C40.3857 16.334 40.6012 15.9008 40.8262 15.4733C41.4412 15.6358 42.1701 15.7221 43.0086 15.7343C43.3146 15.6226 43.7041 15.5681 43.7786 15.2997C43.9271 15.0817 44.2906 15.0089 44.2921 14.6911C44.0976 13.9543 43.3551 13.5878 42.3666 13.3877C41.6937 12.9738 40.4767 12.9295 39.6702 12.6052C38.7182 12.3808 38.1072 11.9249 37.1027 11.7364C36.2417 11.4788 35.2672 11.2991 34.4062 11.0412C32.6872 10.4959 31.3997 9.65758 29.3993 9.30287C27.7148 8.73392 26.1468 8.08611 25.1623 7.04366C25.2468 6.72415 25.4123 6.45914 25.4193 6.08751C26.1223 5.69456 26.8713 5.33241 27.6018 4.95774C28.3873 4.64974 28.9203 4.17015 29.7843 3.91495C30.1962 3.46987 30.7392 3.1128 31.1962 2.69853C31.2667 2.42742 31.3012 2.13195 31.4527 1.91601C31.2987 1.80161 31.4027 1.77927 31.4527 1.65506C32.2907 1.6097 32.9142 1.70887 33.5067 1.82936C33.0557 3.17474 31.8257 3.99313 31.0677 5.13171C30.5642 5.63127 30.1997 6.22425 29.6558 6.69572C29.3303 7.28667 28.4773 7.52089 28.5003 8.34706C28.5978 8.57079 28.8123 8.71565 29.1423 8.78131C30.3587 8.73595 30.6307 8.05091 31.0677 7.4779C31.6787 7.02234 32.1192 6.45169 32.4797 5.82656C33.5327 4.80137 34.4067 3.65501 35.3042 2.52422C36.9362 2.752 37.8707 3.45194 39.5407 3.654C39.4247 4.41553 38.8482 4.86534 38.3857 5.39232C38.0557 5.98022 37.6457 6.51329 37.2302 7.04366C37.0712 7.77541 36.5577 8.26854 36.3312 8.95561C35.9542 9.38309 35.2237 10.1433 35.8177 10.6939C37.1317 10.7427 37.1362 9.90601 37.7442 9.47718C37.9087 8.77758 38.5062 8.37042 38.6427 7.65187C39.5282 6.59994 40.4217 5.55376 41.2102 4.43617C42.0146 4.4998 42.2991 4.91577 43.0076 5.04472C43.5036 5.28841 44.1051 5.46001 44.5481 5.73992C44.3356 6.34914 43.9691 6.8548 43.6496 7.39092C43.3611 7.91993 43.1161 8.47873 42.7506 8.95561C42.5916 9.57195 42.1396 9.99028 41.9806 10.607C41.6017 11.0019 41.1022 11.687 41.5957 12.171C42.3926 12.3311 43.0746 11.9808 43.2641 11.4754C43.6951 11.1008 43.8836 10.5626 44.1631 10.0854C44.6901 9.13872 45.2046 8.18291 45.7036 7.21729C46.3011 7.27618 46.2306 7.78759 46.4736 8.08611C46.7891 8.30746 46.7666 8.75694 47.1156 8.95528C47.3056 10.1301 47.9161 11.0202 48.1426 12.1706C47.8731 12.7992 47.5061 13.362 46.9871 13.822C46.7116 14.4461 46.2021 14.9121 45.8321 15.473C45.1046 16.574 43.8771 17.3362 43.5211 18.6883C44.3816 19.2377 45.1501 18.4859 45.5751 18.1671C45.8841 17.6523 46.4536 17.3132 46.7306 16.7764C47.2841 16.4274 47.5156 15.8602 48.0146 15.473C48.2001 15.2222 48.3651 14.9575 48.6561 14.7778C48.7971 14.526 48.8146 14.1902 49.2981 14.1696C49.6286 14.7852 50.2221 15.2239 50.5821 15.8206C50.9096 16.004 51.1501 16.2474 51.3521 16.5158C51.6351 16.7297 51.9876 16.8969 52.1226 17.2113C51.5991 17.4073 51.4906 17.8838 50.9671 18.0801C50.7051 18.8586 49.8026 19.2035 49.8116 20.1657C50.8691 20.4294 51.2881 19.6343 51.7371 19.2099C52.3216 18.823 52.6241 18.246 53.2781 17.9065C53.9571 18.0547 54.483 18.3076 55.0755 18.5147C56.1785 18.5499 56.8615 18.8701 57.6435 19.1229C57.5415 19.4312 57.0015 19.4417 56.8735 19.7315ZM22.3388 15.7343C22.7068 15.3464 23.1328 14.9971 23.3658 14.5175C23.8968 14.2393 24.0688 13.7187 24.5208 13.3877C24.7048 12.875 25.5028 12.7778 25.2913 11.9973C25.0758 11.8823 24.8608 11.7669 24.3928 11.8234C24.3913 11.9384 24.1678 11.9029 24.1358 11.9973C23.3948 12.6834 22.7198 13.4145 22.0818 14.1702C21.6973 14.5178 21.3848 14.9149 21.0548 15.2997C20.8028 15.6239 20.1978 16.2318 20.7978 16.6034C21.7663 16.6214 22.0158 16.1526 22.3388 15.7343Z" fill="#FFD651"/>
</svg>
