<svg width="27" height="28" viewBox="0 0 27 28" fill="none" xmlns="http://www.w3.org/2000/svg">
<path d="M10.495 0C4.69932 0 0 4.87282 0 10.8826C0 16.8923 4.69932 21.7651 10.4951 21.7651C12.7238 21.7651 14.7906 21.0443 16.4896 19.8165L16.4909 19.8152L24.2745 27.8862C24.4189 28.036 24.6486 28.0398 24.7968 27.8862L26.8946 25.711C27.039 25.5612 27.0316 25.3129 26.8933 25.1694L19.1109 17.0997C20.295 15.3367 20.9901 13.1935 20.9901 10.8826C20.9901 4.87282 16.2908 0 10.495 0ZM10.495 19.2045C6.0624 19.2045 2.46939 15.4788 2.46939 10.8826C2.46939 6.28627 6.06244 2.56061 10.495 2.56061C14.9276 2.56061 18.5207 6.28627 18.5207 10.8826C18.5207 15.4788 14.9277 19.2045 10.495 19.2045Z" fill="#FFD651"/>
</svg>
